<svg width="16" height="16" viewBox="0 0 16 16" fill="none" xmlns="http://www.w3.org/2000/svg">
<path d="M11.5198 0H0.639988C0.286713 0 0 0.286713 0 0.639988V11.5198C0 11.8731 0.286713 12.1598 0.639988 12.1598H11.5198C11.8731 12.1598 12.1598 11.8731 12.1598 11.5198V0.639988C12.1598 0.286713 11.8731 0 11.5198 0ZM10.8798 10.8798H1.27998V1.27998H10.8798V10.8798Z" fill="#E6E7F2"/>
<path d="M14.7196 13.12V14.72H13.1196V15.9999H15.3596C15.7129 15.9999 15.9996 15.7132 15.9996 15.36V13.12H14.7196Z" fill="#E6E7F2"/>
<path d="M11.6414 14.7198H8.19824V15.9998H11.6414V14.7198Z" fill="#E6E7F2"/>
<path d="M5.12019 14.72V13.12H3.84021V15.36C3.84021 15.7132 4.12692 15.9999 4.4802 15.9999H6.72016V14.72H5.12019Z" fill="#E6E7F2"/>
<path d="M15.3596 3.83997H13.1196V5.11994H14.7196V6.71991H15.9996V4.47995C15.9996 4.12668 15.7129 3.83997 15.3596 3.83997Z" fill="#E6E7F2"/>
<path d="M15.9996 8.19843H14.7196V11.6415H15.9996V8.19843Z" fill="#E6E7F2"/>
</svg>
