<svg width="16" height="16" viewBox="0 0 16 16" fill="none" xmlns="http://www.w3.org/2000/svg">
<path d="M3.9001 8.42043H12.1001V10.0619H12.9001V7.56772H8.4001V5.8623H7.6001V7.56772H3.1001V10.0619H3.9001V8.42043Z" fill="#E6E7F2"/>
<path d="M6 10.6587H1C0.447715 10.6587 0 11.1359 0 11.7246V14.9222C0 15.5109 0.447715 15.9881 1 15.9881H6C6.55228 15.9881 7 15.5109 7 14.9222V11.7246C7 11.1359 6.55228 10.6587 6 10.6587Z" fill="#E6E7F2"/>
<path d="M15 10.6587H10C9.44772 10.6587 9 11.1359 9 11.7246V14.9222C9 15.5109 9.44772 15.9881 10 15.9881H15C15.5523 15.9881 16 15.5109 16 14.9222V11.7246C16 11.1359 15.5523 10.6587 15 10.6587Z" fill="#E6E7F2"/>
<path d="M10.5 0H5.5C4.94772 0 4.5 0.477213 4.5 1.06589V4.26354C4.5 4.85221 4.94772 5.32943 5.5 5.32943H10.5C11.0523 5.32943 11.5 4.85221 11.5 4.26354V1.06589C11.5 0.477213 11.0523 0 10.5 0Z" fill="#E6E7F2"/>
</svg>
