<svg width="16" height="16" viewBox="0 0 16 16" fill="none" xmlns="http://www.w3.org/2000/svg">
<path d="M16 2.99766C16 1.37293 12.337 0 8 0C3.663 0 0 1.37293 0 2.99766V4.49648C0 6.12121 3.663 7.49414 8 7.49414C12.337 7.49414 16 6.12121 16 4.49648V2.99766ZM8 12.74C3.663 12.74 0 11.3671 0 9.74238V11.9906C0 13.6154 3.663 14.9883 8 14.9883C12.337 14.9883 16 13.6154 16 11.9906V9.74238C16 11.3671 12.337 12.74 8 12.74Z" fill="#E6E7F2"/>
<path d="M16 5.99512C16 7.61985 12.337 8.99278 8 8.99278C3.663 8.99278 0 7.61985 0 5.99512V8.24336C0 9.8681 3.663 11.241 8 11.241C12.337 11.241 16 9.8681 16 8.24336V5.99512Z" fill="#E6E7F2"/>
</svg>
