<svg width="16" height="16" viewBox="0 0 16 16" fill="none" xmlns="http://www.w3.org/2000/svg">
<path d="M14.3333 4C13.3667 4 12.8267 4.89929 13.0467 5.56751L10.68 7.79076C10.48 7.73455 10.1867 7.73455 9.98667 7.79076L8.28667 6.19826C8.51333 5.53004 7.97333 4.62451 7 4.62451C6.03333 4.62451 5.48667 5.5238 5.71333 6.19826L2.67333 9.03977C1.96 8.83368 1 9.33953 1 10.2451C1 10.932 1.6 11.4941 2.33333 11.4941C3.3 11.4941 3.84 10.5948 3.62 9.92657L6.65333 7.07882C6.85333 7.13502 7.14667 7.13502 7.34667 7.07882L9.04667 8.67131C8.82 9.33953 9.36 10.2451 10.3333 10.2451C11.3 10.2451 11.8467 9.34578 11.62 8.67131L13.9933 6.45431C14.7067 6.6604 15.6667 6.15455 15.6667 5.24901C15.6667 4.56206 15.0667 4 14.3333 4Z" fill="#E6E7F2"/>
</svg>
