<svg width="18" height="19" viewBox="0 0 18 19" fill="none" xmlns="http://www.w3.org/2000/svg">
<g clip-path="url(#clip0)">
<path d="M16.2198 6.52524L5.34053 0.465546C4.7993 0.164085 4.18535 0.00537648 3.56039 0.00537109C2.93544 0.00536571 2.32149 0.164061 1.78025 0.465512C1.23902 0.766963 0.78956 1.20055 0.477065 1.72268C0.164571 2.24482 4.87866e-05 2.83712 2.54506e-05 3.44004V15.5596C-0.00234338 16.1634 0.160687 16.7571 0.472611 17.2806C0.784534 17.8041 1.23427 18.2388 1.77631 18.5407C2.31836 18.8426 2.93346 19.0009 3.55935 18.9998C4.18524 18.9986 4.7997 18.838 5.34053 18.534L16.2198 12.4744C16.7611 12.1729 17.2105 11.7393 17.523 11.2172C17.8355 10.695 18 10.1027 18 9.4998C18 8.89687 17.8355 8.30457 17.523 7.78242C17.2105 7.26028 16.7611 6.82669 16.2198 6.52524ZM11.6086 7.09732C11.3553 6.83259 11.062 6.60634 10.7386 6.42624L8.24475 5.03711C7.91585 4.85378 7.55966 4.72038 7.18869 4.64158L7.70713 4.3528C8.10254 4.13257 8.55106 4.01664 9.00763 4.01665C9.46421 4.01666 9.91274 4.13261 10.3081 4.35285C10.7035 4.57309 11.0319 4.88987 11.2602 5.27134C11.4884 5.6528 11.6086 6.08551 11.6086 6.52598V7.09732ZM10.308 14.6616C9.91355 14.8843 9.46468 15.0017 9.00758 15.0017C8.55049 15.0017 8.10163 14.8843 7.70713 14.6616L7.12649 14.3382C7.51981 14.261 7.89751 14.1227 8.24475 13.9285L10.7386 12.5394C11.062 12.3593 11.3553 12.133 11.6086 11.8683V12.4884C11.6113 12.9294 11.4923 13.3631 11.2637 13.7451C11.0351 14.127 10.7053 14.4433 10.308 14.6616ZM5.07917 13.1049C4.67097 12.8807 4.33202 12.5556 4.09715 12.1632C3.86228 11.7707 3.73996 11.325 3.74276 10.8718V8.09366C3.74101 7.64038 3.86341 7.1947 4.09757 6.80172C4.33174 6.40874 4.66935 6.08242 5.07625 5.85577C5.48315 5.62912 5.94489 5.51019 6.41474 5.51102C6.88459 5.51186 7.34587 5.63243 7.7519 5.86052L10.2457 7.24966C10.652 7.47599 10.9895 7.8015 11.2241 8.1935C11.4586 8.5855 11.5821 9.03017 11.5821 9.4828C11.5821 9.93544 11.4586 10.3801 11.2241 10.7721C10.9895 11.1641 10.652 11.4896 10.2457 11.7159L7.7519 13.1051C7.34649 13.3339 6.88523 13.4546 6.41551 13.4545C5.9458 13.4545 5.48456 13.3338 5.07917 13.1049ZM2.94861 12.0112L2.35474 11.6804C1.95933 11.4602 1.63098 11.1434 1.40269 10.7619C1.1744 10.3805 1.05422 9.94774 1.05422 9.50726C1.05422 9.06678 1.1744 8.63406 1.40269 8.25258C1.63098 7.87111 1.95933 7.55433 2.35474 7.33408L2.92995 7.01368C2.81525 7.36299 2.75692 7.72725 2.75704 8.09367V10.8718C2.75638 11.2591 2.82109 11.6439 2.94861 12.0112ZM2.25984 1.26685C2.65438 1.04413 3.10325 0.926739 3.56037 0.926739C4.01749 0.926739 4.46638 1.04413 4.86092 1.26685L8.26689 3.16395C7.90169 3.24033 7.55104 3.37107 7.22752 3.5515L1.87512 6.53277C1.53036 6.72409 1.22088 6.96923 0.959253 7.25824V3.44004C0.956546 2.99903 1.0756 2.56527 1.30417 2.18334C1.53274 1.80142 1.86259 1.48508 2.25984 1.26685ZM4.86092 17.7327C4.4655 17.953 4.01695 18.0689 3.56036 18.0689C3.10378 18.0689 2.65524 17.953 2.25982 17.7327C1.8644 17.5125 1.53605 17.1957 1.30775 16.8142C1.07945 16.4328 0.95926 16 0.959253 15.5596V11.7562C1.22088 12.0452 1.53037 12.2904 1.87512 12.4818L7.22752 15.4629C7.5454 15.6401 7.8895 15.7694 8.2479 15.8462L4.86092 17.7327ZM15.7402 11.6731L12.4017 13.5326C12.5119 13.1947 12.5679 12.8426 12.5679 12.4884V6.52599C12.568 6.1655 12.5101 5.80718 12.3961 5.46388L15.7402 7.32654C16.1356 7.5468 16.464 7.86359 16.6923 8.24508C16.9206 8.62656 17.0408 9.0593 17.0408 9.4998C17.0408 9.9403 16.9206 10.373 16.6923 10.7545C16.464 11.136 16.1356 11.4528 15.7402 11.6731Z" fill="#E6E7F2"/>
</g>
<defs>
<clipPath id="clip0">
<rect width="18" height="19" fill="white"/>
</clipPath>
</defs>
</svg>
