<svg width="16" height="16" viewBox="0 0 16 16" fill="none" xmlns="http://www.w3.org/2000/svg">
<path d="M12.9928 5.82347C12.9669 5.99274 11.8196 6.15888 10.4511 5.97666C9.08308 5.79444 8.0027 5.43044 8.03798 5.1638C8.07371 4.89717 9.21126 4.82839 10.5797 5.01061C11.9482 5.19283 13.0339 5.55728 12.9928 5.82347ZM4.79459 10.3357C4.76162 10.3687 4.7225 10.3948 4.67944 10.4126C4.63638 10.4304 4.59024 10.4396 4.54365 10.4395C4.49705 10.4395 4.45092 10.4303 4.40788 10.4125C4.36484 10.3946 4.32573 10.3685 4.2928 10.3355C4.25987 10.3025 4.23375 10.2634 4.21594 10.2204C4.19813 10.1773 4.18897 10.1312 4.18899 10.0846C4.18901 10.038 4.19821 9.99184 4.21606 9.9488C4.23391 9.90576 4.26006 9.86665 4.29302 9.83372C4.3596 9.76721 4.44986 9.72987 4.54396 9.72991C4.63807 9.72995 4.7283 9.76737 4.79481 9.83394C4.86132 9.90051 4.89866 9.99078 4.89862 10.0849C4.89858 10.179 4.86116 10.2692 4.79459 10.3357ZM6.27604 11.5037C6.22245 11.5586 6.15848 11.6024 6.08785 11.6324C6.01722 11.6624 5.94132 11.6781 5.86457 11.6786C5.78782 11.6791 5.71174 11.6643 5.64075 11.6351C5.56975 11.6059 5.50526 11.563 5.451 11.5087C5.39674 11.4544 5.35381 11.3899 5.32468 11.3189C5.29555 11.2479 5.28082 11.1718 5.28133 11.095C5.28184 11.0183 5.29758 10.9424 5.32765 10.8718C5.35772 10.8012 5.40151 10.7372 5.45648 10.6836C5.56569 10.5772 5.71242 10.5182 5.86489 10.5192C6.01736 10.5202 6.16329 10.5812 6.27107 10.6891C6.37886 10.7969 6.43982 10.9429 6.44075 11.0953C6.44168 11.2478 6.3825 11.3945 6.27604 11.5037ZM7.02503 9.12582C6.92119 9.21974 6.78522 9.27016 6.64525 9.26666C6.50528 9.26315 6.37201 9.20598 6.273 9.10697C6.174 9.00797 6.11683 8.8747 6.11332 8.73472C6.10981 8.59475 6.16023 8.45878 6.25416 8.35494C6.30477 8.30433 6.36486 8.26417 6.431 8.23678C6.49713 8.20939 6.56801 8.19529 6.6396 8.19529C6.71118 8.19529 6.78206 8.20939 6.84819 8.23678C6.91433 8.26417 6.97442 8.30433 7.02503 8.35494C7.07565 8.40556 7.1158 8.46565 7.14319 8.53178C7.17059 8.59792 7.18469 8.6688 7.18469 8.74038C7.18469 8.81196 7.17059 8.88284 7.14319 8.94898C7.1158 9.01511 7.07565 9.0752 7.02503 9.12582ZM3.95761 13.082C3.89621 13.1454 3.82282 13.1959 3.74172 13.2306C3.66061 13.2653 3.57341 13.2835 3.4852 13.2842C3.39698 13.2849 3.30951 13.268 3.22788 13.2345C3.14625 13.2011 3.0721 13.1517 3.00973 13.0893C2.94737 13.0269 2.89804 12.9527 2.86462 12.8711C2.83121 12.7894 2.81437 12.702 2.81509 12.6137C2.8158 12.5255 2.83407 12.4383 2.86881 12.3573C2.90356 12.2762 2.95409 12.2028 3.01746 12.1414C3.14286 12.02 3.31097 11.9527 3.48551 11.9542C3.66006 11.9556 3.82705 12.0256 3.95044 12.149C4.07384 12.2725 4.14375 12.4395 4.14509 12.6141C4.14643 12.7886 4.0791 12.9567 3.95761 13.082ZM9.04735 8.99183C8.95869 9.08043 8.83846 9.13019 8.71312 9.13014C8.58777 9.1301 8.46758 9.08027 8.37898 8.99161C8.29038 8.90294 8.24062 8.78272 8.24066 8.65737C8.24071 8.53203 8.29054 8.41183 8.3792 8.32323C8.4231 8.27936 8.47521 8.24456 8.53256 8.22083C8.58991 8.1971 8.65137 8.1849 8.71344 8.18492C8.7755 8.18494 8.83695 8.19718 8.89428 8.22095C8.95162 8.24472 9.0037 8.27955 9.04758 8.32346C9.09145 8.36736 9.12624 8.41947 9.14997 8.47682C9.17371 8.53416 9.18591 8.59562 9.18589 8.65769C9.18587 8.71975 9.17362 8.78121 9.14985 8.83854C9.12608 8.89587 9.09125 8.94796 9.04735 8.99183ZM8.50828 7.0767C8.4799 7.10701 8.44572 7.1313 8.40777 7.14813C8.36981 7.16496 8.32886 7.17398 8.28734 7.17465C8.24583 7.17532 8.20461 7.16764 8.16613 7.15205C8.12765 7.13647 8.09269 7.1133 8.06335 7.08393C8.03401 7.05455 8.01087 7.01958 7.99533 6.98108C7.97978 6.94258 7.97214 6.90135 7.97285 6.85984C7.97357 6.81833 7.98263 6.77738 7.9995 6.73944C8.01636 6.70151 8.04069 6.66735 8.07103 6.63901C8.1297 6.58419 8.20738 6.55433 8.28766 6.55571C8.36794 6.5571 8.44454 6.58963 8.50129 6.64643C8.55803 6.70324 8.59049 6.77987 8.59179 6.86015C8.59309 6.94044 8.56315 7.01808 8.50828 7.0767Z" fill="#E6E7F2"/>
<path fill-rule="evenodd" clip-rule="evenodd" d="M11.0982 0.177382C11.6118 -0.336684 13.0861 0.30467 14.3907 1.60926C15.6953 2.91386 16.3367 4.38817 15.8226 4.90179C15.8195 4.90489 15.8159 4.90736 15.8123 4.9098C15.8092 4.91192 15.8061 4.91403 15.8034 4.91653C15.8022 4.91795 15.8013 4.91956 15.8005 4.92118C15.7995 4.92313 15.7984 4.92509 15.7967 4.9268L5.70119 15.0223C5.39181 15.3334 5.02381 15.5799 4.61848 15.7477C4.21316 15.9155 3.77857 16.0013 3.33988 16C2.90109 16.0012 2.46642 15.9154 2.06102 15.7475C1.65563 15.5796 1.28756 15.333 0.978122 15.0219C0.347487 14.3912 1.2511e-05 13.5525 1.2511e-05 12.6606C-0.00119232 12.2218 0.0846345 11.7871 0.252526 11.3817C0.420418 10.9763 0.667041 10.6083 0.978122 10.2988L11.0736 0.203286C11.075 0.201947 11.0767 0.201053 11.0783 0.20016C11.08 0.199267 11.0817 0.198373 11.083 0.197034C11.0855 0.194339 11.0877 0.191163 11.0899 0.187953C11.0925 0.184246 11.0951 0.180494 11.0982 0.177382ZM3.34032 14.6606C3.87449 14.6606 4.3765 14.4529 4.75434 14.075L14.1312 4.69768C13.6203 4.41988 13.0616 4.00094 12.5305 3.46991C11.9995 2.93842 11.5806 2.38014 11.3028 1.8692L1.92542 11.2461C1.54802 11.6239 1.33989 12.126 1.33989 12.6601C1.33915 12.9229 1.39055 13.1833 1.49114 13.4261C1.59172 13.6689 1.73948 13.8893 1.92586 14.0746C2.30371 14.4524 2.80616 14.6606 3.34032 14.6606ZM14.0906 1.91205C14.936 2.75744 15.454 3.61017 15.2475 3.81669C15.041 4.0232 14.1882 3.50529 13.3428 2.6599C12.4974 1.81451 11.9794 0.961776 12.1859 0.755262C12.3924 0.548747 13.2452 1.06666 14.0906 1.91205Z" fill="#E6E7F2"/>
</svg>
