<svg width="16" height="16" viewBox="0 0 16 16" fill="none" xmlns="http://www.w3.org/2000/svg">
<path d="M3.42857 9.55092C3.42857 9.25316 3.31696 8.99893 3.09375 8.78825C2.87054 8.57756 2.60119 8.47222 2.28571 8.47222C1.97024 8.47222 1.70089 8.57756 1.47768 8.78825C1.25446 8.99893 1.14286 9.25316 1.14286 9.55092C1.14286 9.84869 1.25446 10.1029 1.47768 10.3136C1.70089 10.5243 1.97024 10.6296 2.28571 10.6296C2.60119 10.6296 2.87054 10.5243 3.09375 10.3136C3.31696 10.1029 3.42857 9.84869 3.42857 9.55092ZM5.14286 5.77546C5.14286 5.4777 5.03125 5.22347 4.80804 5.01278C4.58482 4.8021 4.31548 4.69676 4 4.69676C3.68452 4.69676 3.41518 4.8021 3.19196 5.01278C2.96875 5.22347 2.85714 5.4777 2.85714 5.77546C2.85714 6.07323 2.96875 6.32746 3.19196 6.53814C3.41518 6.74882 3.68452 6.85417 4 6.85417C4.31548 6.85417 4.58482 6.74882 4.80804 6.53814C5.03125 6.32746 5.14286 6.07323 5.14286 5.77546ZM8.96429 9.82903L9.86607 6.60977C9.90179 6.4637 9.87947 6.32745 9.79911 6.20104C9.71875 6.07463 9.60417 5.99176 9.45536 5.95244C9.30655 5.91311 9.16369 5.93137 9.02679 6.00722C8.88988 6.08306 8.8006 6.19402 8.75893 6.3401L7.85714 9.55935C7.5 9.58744 7.18155 9.70964 6.90179 9.92594C6.62202 10.1422 6.43452 10.4189 6.33929 10.756C6.22024 11.1886 6.27976 11.5988 6.51786 11.9864C6.75595 12.3741 7.10417 12.6241 7.5625 12.7365C8.02083 12.8488 8.45536 12.7927 8.86607 12.5679C9.27679 12.3432 9.54167 12.0145 9.66071 11.5819C9.75595 11.2448 9.7381 10.9162 9.60714 10.5959C9.47619 10.2757 9.26191 10.02 8.96429 9.82903ZM14.8571 9.55092C14.8571 9.25316 14.7455 8.99893 14.5223 8.78825C14.2991 8.57756 14.0298 8.47222 13.7143 8.47222C13.3988 8.47222 13.1295 8.57756 12.9062 8.78825C12.683 8.99893 12.5714 9.25316 12.5714 9.55092C12.5714 9.84869 12.683 10.1029 12.9062 10.3136C13.1295 10.5243 13.3988 10.6296 13.7143 10.6296C14.0298 10.6296 14.2991 10.5243 14.5223 10.3136C14.7455 10.1029 14.8571 9.84869 14.8571 9.55092ZM9.14286 4.15741C9.14286 3.85964 9.03125 3.60541 8.80804 3.39473C8.58482 3.18405 8.31548 3.0787 8 3.0787C7.68452 3.0787 7.41518 3.18405 7.19196 3.39473C6.96875 3.60541 6.85714 3.85964 6.85714 4.15741C6.85714 4.45517 6.96875 4.7094 7.19196 4.92008C7.41518 5.13077 7.68452 5.23611 8 5.23611C8.31548 5.23611 8.58482 5.13077 8.80804 4.92008C9.03125 4.7094 9.14286 4.45517 9.14286 4.15741ZM13.1429 5.77546C13.1429 5.4777 13.0313 5.22347 12.808 5.01278C12.5848 4.8021 12.3155 4.69676 12 4.69676C11.6845 4.69676 11.4152 4.8021 11.192 5.01278C10.9688 5.22347 10.8571 5.4777 10.8571 5.77546C10.8571 6.07323 10.9688 6.32746 11.192 6.53814C11.4152 6.74882 11.6845 6.85417 12 6.85417C12.3155 6.85417 12.5848 6.74882 12.808 6.53814C13.0313 6.32746 13.1429 6.07323 13.1429 5.77546ZM16 9.55092C16 11.0173 15.5804 12.3741 14.7411 13.6213C14.628 13.7843 14.4673 13.8657 14.2589 13.8657H1.74107C1.53274 13.8657 1.37202 13.7843 1.25893 13.6213C0.419643 12.3797 0 11.0229 0 9.55092C0 8.5284 0.21131 7.55083 0.633929 6.6182C1.05655 5.68557 1.625 4.88216 2.33929 4.20797C3.05357 3.53378 3.90476 2.99724 4.89286 2.59834C5.88095 2.19945 6.91667 2 8 2C9.08333 2 10.119 2.19945 11.1071 2.59834C12.0952 2.99724 12.9464 3.53378 13.6607 4.20797C14.375 4.88216 14.9435 5.68557 15.3661 6.6182C15.7887 7.55083 16 8.5284 16 9.55092Z" fill="#E6E7F2"/>
</svg>
