<svg width="9" height="11" viewBox="0 0 9 11" fill="none" xmlns="http://www.w3.org/2000/svg">
<g clip-path="url(#clip0)">
<path fill-rule="evenodd" clip-rule="evenodd" d="M5.94586 1.98268C4.6925 1.21125 2.99307 1.58927 2.17344 2.92094C1.35381 4.2526 1.78193 5.94011 3.0353 6.71154C4.28866 7.48298 5.9881 7.10496 6.80773 5.77329C7.62735 4.44162 7.19923 2.75411 5.94586 1.98268ZM1.18038 2.30972C2.2897 0.507371 4.67344 -0.104538 6.52798 1.03691C8.38251 2.17835 8.91011 4.58216 7.80079 6.38451C6.69146 8.18685 4.30772 8.79876 2.45319 7.65732C0.598653 6.51587 0.0710532 4.11206 1.18038 2.30972Z" fill="#E6E7F2"/>
<rect x="2.35938" y="6.63818" width="1.22746" height="3.95197" rx="0.61373" transform="rotate(31.6119 2.35938 6.63818)" fill="#E6E7F2"/>
</g>
<defs>
<clipPath id="clip0">
<rect width="9" height="11" fill="white"/>
</clipPath>
</defs>
</svg>
