<svg width="27" height="16" viewBox="0 0 27 16" fill="none" xmlns="http://www.w3.org/2000/svg">
<path d="M1 9.82206C1 12.6885 3.27273 15 5.06556 15H10.0909H16.9091H21.9344C23.7273 15 26 12.6885 26 9.82206C26 7.17099 23.9976 5.15113 21.5097 5.15113C20.5995 5.15113 20.0534 5.40361 20.0534 5.40361C19.4527 3.45974 18.375 2.01218 17.0622 1.10295C16.997 1.05773 16.9091 1.10518 16.9091 1.18459V7.48763H20.0643C20.1551 7.48763 20.1989 7.59886 20.1325 7.66077L13.5 13.8443L6.86753 7.66077C6.80113 7.59886 6.84494 7.48763 6.93572 7.48763H10.0909V1.18459C10.0909 1.10518 10.003 1.05773 9.93776 1.10295C8.62505 2.01219 7.54726 3.45974 6.9466 5.40361C6.9466 5.40361 6.40049 5.15113 5.49029 5.15113C3.00243 5.15113 1 7.17099 1 9.82206Z" fill="#E6E7F2" stroke="#E6E7F2"/>
</svg>
