<svg width="312" height="312" viewBox="0 0 312 312" fill="none" xmlns="http://www.w3.org/2000/svg">
<path d="M117 175.758V233.5C117 233.776 116.776 234 116.5 234H59.51C38.9999 234 12.9999 208 12.9999 175.758C12.9999 145.938 35.9077 123.219 64.3689 123.219C74.7815 123.219 81.0291 126.059 81.0291 126.059C93.5242 86.2997 124.068 65 156 65C187.932 65 218.476 86.2997 230.971 126.059C230.971 126.059 237.218 123.219 247.631 123.219C276.092 123.219 299 145.938 299 175.758C299 208 273 234 252.49 234H195.5C195.224 234 195 233.776 195 233.5V175.758H230.409C231.625 175.758 232.176 174.238 231.242 173.459L158.081 104C156.875 102.996 155.125 102.996 153.919 104L80.7584 173.459C79.8243 174.238 80.3747 175.758 81.5906 175.758H117Z" fill="#262845" stroke="#262845"/>
</svg>
