<svg width="24" height="24" viewBox="0 0 24 24" fill="none" xmlns="http://www.w3.org/2000/svg">
<path d="M9 13.5198V17.5C9 17.7761 8.77614 18 8.5 18H4.5777C3 18 1 16 1 13.5198C1 11.226 2.76214 9.47836 4.95146 9.47836C5.75243 9.47836 6.23301 9.69682 6.23301 9.69682C7.19417 6.63844 9.54369 5 12 5C14.4563 5 16.8058 6.63844 17.767 9.69682C17.767 9.69682 18.2476 9.47836 19.0485 9.47836C21.2379 9.47836 23 11.226 23 13.5198C23 16 21 18 19.4223 18H15.5C15.2239 18 15 17.7761 15 17.5V13.5198H17.7238C17.8173 13.5198 17.8597 13.4029 17.7878 13.343L12.16 8C12.0673 7.92274 11.9327 7.92274 11.84 8L6.21219 13.343C6.14034 13.4029 6.18268 13.5198 6.27621 13.5198H9Z" fill="#484C84" stroke="#484C84"/>
</svg>
